<svg xmlns="http://www.w3.org/2000/svg" width="227.381" height="80" viewBox="0 0 227.381 80">
    <g transform="translate(-199.28 -3594.506)">
        <path d="M281.645,3670.738h-2.5v3.768h3.768v-3.768Z" fill="#231f20"/>
        <path d="M323.9,3670.738h-2.5v3.768h3.768v-3.768Z" fill="#231f20"/>
        <path d="M425.531,3617.476v-21.84h-131.2l-7.158,10.968-7.158-10.968H200.41v77.74h59.821l.089-51.334,11.369,17.408v33.926h30.976V3639.45l11.168-17.1v51.027h30.976v-24.8h5.153a22.629,22.629,0,0,0,18.924-9.459v34.258h56.644V3642.4h-6.352v-18.574Z"
              fill="#0e081e"/>
        <path d="M426.661,3674.506h-58.9v-32.24c-.153.161-.307.32-.464.476a23.93,23.93,0,0,1-17.33,6.965h-4.023v24.8H312.7v-48.359l-8.908,13.639v34.72H270.559v-34.72l-9.115-13.956-.085,48.676H199.28v-80h81.351l6.546,10.03,6.545-10.03H426.661v23.438l-6.351,6.35v16.976h6.351Zm-56.643-2.261H424.4v-28.714h-6.352v-20.173l6.352-6.351v-20.24H294.946l-7.769,11.905-7.769-11.905H201.54v75.478H259.1l.1-53.99,13.622,20.858v33.132h28.715v-33.132l13.43-20.561v53.693h28.715v-24.8h6.283a21.495,21.495,0,0,0,18.005-8.986l2.049-2.859Z"
              fill="#211f5e"/>
        <path d="M255.709,3600.158H233.776v17.2h-6.912v-17.2H204.931v68.7h21.933v-29.563h6.912v29.563h21.933v-68.7Z"
              fill="#8978ff"/>
        <path d="M256.463,3669.608h-23.44v-29.562h-5.4v29.562H204.177v-70.2h23.441v17.2h5.4v-17.2h23.44ZM234.53,3668.1h20.426v-67.19H234.53v17.2h-8.419v-17.2H205.685v67.19h20.426v-29.563h8.419Z"
              fill="#211f5e"/>
        <path d="M287.177,3614.876l-9.606-14.719h-17v13.994L276.21,3638.1v30.75h21.933V3638.1l15.644-23.952v-13.994h-17Z"
              fill="#8978ff"/>
        <path d="M298.9,3669.608h-23.44v-31.279l-15.644-23.952V3599.4h18.166l9.2,14.094,9.2-14.094h18.166v14.973L298.9,3638.328Zm-21.933-1.507H297.39v-30.222l15.644-23.951v-13.017H297.191l-10.014,15.344-10.014-15.344H261.32v13.017l15.644,23.952Z"
              fill="#211f5e"/>
        <path d="M368.343,3600.419l-9.827-.163c-.051,0-5.935-.1-8.554-.1H318.354v68.7h21.934v-24.8h9.674a18.146,18.146,0,0,0,18.641-18.641V3618.8c0-2.309-.074-7.065-.1-8.467Z"
              fill="#8978ff"/>
        <path d="M341.041,3669.608H317.6v-70.2h32.361c2.387,0,7.52.082,8.525.1l10.6.176.175,10.641c.016.995.1,6.079.1,8.48v6.615a18.9,18.9,0,0,1-19.395,19.4h-8.921Zm-21.933-1.507h20.426v-24.8h10.428a17.394,17.394,0,0,0,17.888-17.888V3618.8c0-2.389-.081-7.463-.1-8.455l-.151-9.184-9.14-.151c-1-.016-6.125-.1-8.5-.1H319.108Z"
              fill="#211f5e"/>
        <path d="M414.658,3639.292v-17.338l6.351-6.351v-15.445h-47.6v68.7h47.6v-21.933H395.34v-7.63Z" fill="#8978ff"/>
        <path d="M421.763,3669.608H372.655v-70.2h49.109v16.511l-6.351,6.351v17.78H396.094v6.122h25.669Zm-47.6-1.507h46.094v-20.426H394.587v-9.137H413.9v-16.9l6.351-6.351v-14.38h-46.1Z"
              fill="#211f5e"/>
        <path d="M238.3,3664.333v-29.562H222.343v29.563H209.452v-59.655h12.891v17.2H238.3v-17.2h12.891v59.655Z"
              fill="#211f5e"/>
        <path d="M251.565,3664.71H237.92v-29.562h-15.2v29.562H209.075V3604.3H222.72v17.2h15.2v-17.2h13.645Zm-12.891-.753h12.137v-58.9H238.674v17.2H221.966v-17.2H209.829v58.9h12.137v-29.563h16.708Z"
              fill="#ff42ca"/>
        <path d="M280.731,3664.333v-27.575l-15.643-23.952v-8.128h10.035l12.054,18.47,12.054-18.47h10.035v8.128l-15.644,23.952v27.575Z"
              fill="#211f5e"/>
        <path d="M294,3664.71H280.355v-27.839l-15.644-23.952V3604.3h10.616l.112.171,11.738,17.986,11.85-18.157h10.616v8.617l-.062.093L294,3636.871Zm-12.891-.753h12.138v-27.311l.061-.094,15.582-23.858v-7.638h-9.454l-12.258,18.782-12.258-18.782h-9.454v7.638l15.643,23.952Z"
              fill="#ff42ca"/>
        <path d="M322.875,3664.333v-37.686l7.237,0h19.85a.935.935,0,0,0,1.23-1.229V3618.8c0-.347,0-.768,0-1.229H330.115l-7.24.054v-12.944h27.087c2.588,0,8.409.1,8.467.1l5.466.09.09,5.467c0,.056.1,5.856.1,8.465v6.615a13.631,13.631,0,0,1-14.12,14.12h-14.2v24.8Z"
              fill="#211f5e"/>
        <path d="M336.143,3664.71H322.5v-38.44l27.463,0a2.2,2.2,0,0,0,.761-.094,2.24,2.24,0,0,0,.092-.759V3618.8c0-.25,0-.538,0-.852h-20.7L322.5,3618v-13.7h27.463c2.586,0,8.424.1,8.475.1l5.829.1.1,5.9c.022,1.394.1,6.122.1,8.4v6.615a14.01,14.01,0,0,1-14.5,14.5H336.143Zm-12.891-.753H335.39v-24.8h14.572a13.258,13.258,0,0,0,13.744-13.743V3618.8c0-2.274-.074-7-.1-8.39l-.085-5.171-5.1-.085c-.052,0-5.9-.1-8.461-.1h-26.71v12.188l6.86-.051h21.452l0,.374c0,.46,0,.882,0,1.23v6.615a1.269,1.269,0,0,1-1.606,1.606l-26.71,0Z"
              fill="#ff42ca"/>
        <path d="M377.93,3664.333V3621.88h32.209v12.891H390.819v16.672h25.669v12.891Z" fill="#211f5e"/>
        <path d="M416.865,3664.71H377.553V3621.5h32.962v13.644H391.2v15.918h25.669Zm-38.558-.753h37.8v-12.138H390.443v-17.425H409.76v-12.137H378.3Z"
              fill="#ff42ca"/>
        <path d="M377.928,3604.679h38.56v9.051l-3.84,3.84H385.168l-7.239.068Z" fill="#211f5e"/>
        <path d="M377.552,3618.018V3604.3h39.313v9.584l-4.06,4.06H385.168Zm.753-12.962v12.2l6.859-.064h27.329l3.619-3.619v-8.518Z"
              fill="#ff42ca"/>
        <g opacity="0">
            <path d="M247.986,3661.131H241.5v-29.563H219.14v29.563h-6.485v-53.25h6.485v17.2H241.5v-17.2h6.486Zm-6.11-.377h5.733v-52.5h-5.733v17.2H218.764v-17.2h-5.733v52.5h5.733v-29.562h23.112Z"
                  fill="#211f5e"/>
            <path d="M290.42,3661.131h-6.486V3635.8l-15.644-23.952v-3.972h5.1l.055.086,13.292,20.367.441.692.44-.692,13.348-20.453h5.1v3.972l-.031.047L290.42,3635.8Zm-6.109-.377h5.732v-25.061l.031-.047,15.613-23.905v-3.483h-4.518l-13.236,20.281-.756,1.188-.757-1.189-13.235-20.28h-4.518v3.483l15.644,23.952Z"
                  fill="#211f5e"/>
            <path d="M332.564,3661.131h-6.486v-31.283l23.884,0a3.975,3.975,0,0,0,4.432-4.432V3618.8c0-1.1-.011-2.932-.022-4.424-1.483,0-3.3-.008-4.41-.008H330.115l-4.037.03v-6.516h23.884c2.565,0,8.356.1,8.413.1l2.369.039.039,2.369c0,.057.1,5.826.1,8.412v6.615a10.441,10.441,0,0,1-10.918,10.918h-17.4Zm-6.109-.377h5.732v-24.8h17.775a10.063,10.063,0,0,0,10.541-10.541V3618.8c0-2.582-.1-8.349-.1-8.406l-.033-2-2-.034c-.057,0-5.845-.1-8.407-.1H326.455v5.76l3.659-.028h19.848c1.154,0,3.083.005,4.6.009h.187v.187c.011,1.524.024,3.467.024,4.613v6.615a4.347,4.347,0,0,1-4.809,4.809l-23.507,0Z"
                  fill="#211f5e"/>
            <path d="M413.286,3661.131H381.132v-36.048h25.8v6.485H387.617v23.077h25.669Zm-31.777-.377h31.4v-5.732H387.24v-23.83h19.318v-5.732h-25.05Z"
                  fill="#211f5e"/>
            <path d="M381.131,3614.405v-6.524h32.155v4.522l-1.964,1.964H385.168Zm.377-6.147v5.767l3.658-.035h26l1.743-1.743v-3.989Z"
                  fill="#211f5e"/>
        </g>
        <path d="M385.169,3657.094h0v-27.975h19.318v-1.587H383.58v31.15h27.256v-1.588Z" fill="none"/>
        <path d="M383.58,3610.33v1.6l1.588-.015h25.14l.529-.529v-1.059Z" fill="none"/>
        <rect width="1.588" height="15.604" transform="translate(215.104 3610.33)" fill="aqua"/>
        <rect width="1.588" height="27.953" transform="translate(215.104 3630.729)" fill="aqua"/>
        <path d="M245.626,3627.532H216.871l-1.767,0v1.579l1.767.005h26.989l1.767.01Z" fill="aqua"/>
        <rect width="1.588" height="27.953" transform="translate(243.949 3630.729)" fill="aqua"/>
        <rect width="1.588" height="15.604" transform="translate(243.949 3610.33)" fill="aqua"/>
        <path d="M287.177,3632.295l-.794,1.588v24.8h1.588v-24.8Z" fill="aqua"/>
        <path d="M303.614,3610.33h-1.323L288.5,3631.464l.805,1.571,14.31-21.911Z" fill="aqua"/>
        <path d="M270.739,3611.124l14.31,21.911.805-1.571-13.792-21.133h-1.323Z" fill="aqua"/>
        <path d="M358.334,3610.427s-5.831-.1-8.372-.1H328.527v1.6l1.588-.012h19.847c2.117,0,6.839.015,6.839.015s.042,4.748.042,6.866v6.615a6.392,6.392,0,0,1-6.881,6.881H328.527v26.386h1.588v-24.8h19.847a8,8,0,0,0,8.469-8.469V3618.8C358.431,3616.258,358.334,3610.427,358.334,3610.427Z"
              fill="aqua"/>
        <path d="M385.169,3657.094h0v-27.975h19.318v-1.587H383.58v31.15h27.256v-1.588Z" fill="aqua"/>
        <path d="M383.58,3610.33v1.6l1.588-.015h25.14l.529-.529v-1.059Z" fill="aqua"/>
    </g>
</svg>